<svg xmlns="http://www.w3.org/2000/svg" xmlns:xlink="http://www.w3.org/1999/xlink" width="58" height="61" viewBox="0 0 58 61"><defs><style>.a{fill:#fff;stroke:#707070;}.b{clip-path:url(#a);}.c{fill:#ff4081;}.d{fill:#ed3e79;}.e{fill:#ffb300;}.f{fill:#29b6f6;}.g{fill:#03a9f4;}.h{fill:#6c838c;}.i{fill:#61747d;}.j{fill:#fff7e6;}</style><clipPath id="a"><rect class="a" width="58" height="61" transform="translate(0 -1.807)"/></clipPath></defs><g class="b" transform="translate(0 1.807)"><g transform="translate(0 8.85)"><path class="c" d="M43.157,26.47c-8,0-23.657-2.338-23.657-5.222s15.654-5.221,23.657-5.221c0,0,5.327.3,5.327,5.221S43.157,26.47,43.157,26.47Zm0,0" transform="translate(9.484 7.795)"/><path class="d" d="M36.359,16.027c-.878,0-1.849.028-2.88.082,1.4.254,4.707,1.262,4.707,5.139s-3.3,4.886-4.707,5.139c1.031.054,2,.082,2.88.082,0,0,5.327-.3,5.327-5.221s-5.327-5.222-5.327-5.222Zm0,0" transform="translate(16.282 7.795)"/><path class="c" d="M5.327,16.027c8,0,23.657,2.338,23.657,5.222S13.33,26.47,5.327,26.47c0,0-5.327-.3-5.327-5.221s5.327-5.222,5.327-5.222Zm0,0" transform="translate(0 7.795)"/><path class="e" d="M8.8,20.227c0-1.158-1.514-2.1-3.382-2.1s-3.382.939-3.382,2.1,1.514,2.1,3.382,2.1S8.8,21.385,8.8,20.227Zm0,0" transform="translate(0.988 8.817)"/><path class="f" d="M42.631,17.789C35.7,21.8,20.977,27.617,19.538,25.12S30.489,12.755,37.42,8.746c0,0,4.763-2.41,7.219,1.853s-2.008,7.191-2.008,7.191Zm0,0" transform="translate(9.446 3.923)"/><path class="g" d="M44.471,10.6a5,5,0,0,0-6.1-2.265,4.8,4.8,0,0,1,2.6,2.265c2.456,4.262-2.008,7.191-2.008,7.191-4.982,2.883-13.991,6.7-19.2,7.69,2.773,1.45,16.179-3.919,22.7-7.69,0,0,4.464-2.928,2.008-7.191Zm0,0" transform="translate(9.613 3.923)"/><path class="f" d="M10.072,8.746C17,12.755,29.394,22.623,27.954,25.12S11.793,21.8,4.862,17.789c0,0-4.464-2.928-2.008-7.191s7.219-1.853,7.219-1.853Zm0,0" transform="translate(1.029 3.923)"/><g transform="translate(6.73 15.517)"><path class="e" d="M8.734,11.238c1.562,1.024,2.312,2.639,1.676,3.608s-2.418.923-3.979-.1-2.313-2.64-1.676-3.608S7.172,10.214,8.734,11.238Zm0,0" transform="translate(-4.528 -10.44)"/><path class="e" d="M32.264,11.238c-1.562,1.024-2.312,2.639-1.676,3.608s2.418.923,3.979-.1,2.313-2.64,1.676-3.608S33.826,10.214,32.264,11.238Zm0,0" transform="translate(8.036 -10.44)"/><path class="e" d="M39.182,20.227c0-1.158-1.514-2.1-3.382-2.1s-3.382.939-3.382,2.1,1.514,2.1,3.382,2.1S39.182,21.385,39.182,20.227Zm0,0" transform="translate(9.036 -6.7)"/></g><path class="c" d="M36.038,10.093c-4,6.946-13.849,19.361-16.341,17.919s3.314-16.195,7.316-23.141c0,0,2.922-4.473,7.176-2.012s1.849,7.234,1.849,7.234Zm0,0" transform="translate(9.287 1.031)"/><path class="d" d="M34.177,2.86a4.658,4.658,0,0,0-4.289-.386,6.076,6.076,0,0,1,.79.386c4.254,2.461,1.85,7.233,1.85,7.233C29.5,15.35,23.122,23.739,19.119,26.883a1.431,1.431,0,0,0,.566,1.13c2.492,1.442,12.339-10.973,16.341-17.919,0,0,2.4-4.772-1.85-7.233Zm0,0" transform="translate(9.299 1.031)"/><path class="c" d="M17.753,4.871c4,6.946,9.808,21.7,7.316,23.141S12.729,17.039,8.728,10.093c0,0-2.4-4.772,1.849-7.234s7.176,2.012,7.176,2.012Zm0,0" transform="translate(3.915 1.031)"/><path class="e" d="M14.91,6.777c.934,1.617.877,3.4-.127,3.976s-2.576-.262-3.51-1.878S10.4,5.478,11.4,4.9,13.976,5.16,14.91,6.777Zm0,0" transform="translate(5.159 2.293)"/><path class="e" d="M25.715,6.777c-.934,1.617-.877,3.4.127,3.976s2.576-.262,3.51-1.878.877-3.4-.127-3.976S26.65,5.16,25.715,6.777Zm0,0" transform="translate(12.183 2.293)"/><path class="f" d="M26.416,5.338c0,8.02-2.333,23.706-5.211,23.706S15.994,13.358,15.994,5.338c0,0,.3-5.338,5.211-5.338S26.416,5.338,26.416,5.338Zm0,0" transform="translate(7.779 0)"/><path class="g" d="M20.072,0a5.49,5.49,0,0,0-1.75.267c3.237,1.08,3.461,5.07,3.461,5.07,0,6.309-1.444,17.362-3.461,21.79.547,1.2,1.136,1.916,1.75,1.916,2.878,0,5.211-15.686,5.211-23.706,0,0-.3-5.338-5.211-5.338Zm0,0" transform="translate(8.911 0)"/><path class="e" d="M22.286,6.438c0-1.867-.94-3.38-2.1-3.38s-2.1,1.513-2.1,3.38.94,3.38,2.1,3.38S22.286,8.3,22.286,6.438Zm0,0" transform="translate(8.797 1.487)"/><path class="h" d="M28.943,28.947c0,3.475-3.185,6.293-7.115,6.293s-7.115-2.818-7.115-6.293a5.966,5.966,0,0,1,2.249-4.592A8.6,8.6,0,0,0,20,18.187l.456-8.467c.021-.393.635-.7,1.371-.7a2.148,2.148,0,0,1,.953.2.658.658,0,0,1,.417.5l.456,8.467a8.594,8.594,0,0,0,3.039,6.169,5.967,5.967,0,0,1,2.249,4.592Zm0,0" transform="translate(7.156 4.386)"/><path class="i" d="M24.938,24.356A8.6,8.6,0,0,1,21.9,18.187L21.443,9.72a.658.658,0,0,0-.417-.5,2.147,2.147,0,0,0-.953-.2c-.736,0-1.349.31-1.371.7l-.379,7.037.077,1.43a8.6,8.6,0,0,0,3.039,6.169,5.964,5.964,0,0,1,2.249,4.592,6.5,6.5,0,0,1-5.365,6.1,8.016,8.016,0,0,0,1.75.192c3.929,0,7.115-2.818,7.115-6.293a5.967,5.967,0,0,0-2.249-4.592Zm0,0" transform="translate(8.911 4.386)"/><path class="h" d="M22.751,11.278c0,2.158-1.907,5.417-2.449,5.417s-2.449-3.259-2.449-5.417,1.1-3.907,2.449-3.907S22.751,9.12,22.751,11.278Zm0,0" transform="translate(8.682 3.585)"/><path class="j" d="M20.134,10.558A2.318,2.318,0,0,0,18.2,12.079c.605,1.61,1.576,3.065,1.939,3.065s1.334-1.455,1.939-3.065A2.318,2.318,0,0,0,20.134,10.558Zm0,0" transform="translate(8.849 5.135)"/></g></g></svg>